<svg xmlns="http://www.w3.org/2000/svg" fill="none" viewBox="0 0 128 128">

<g transform="translate(0.000000,8633.000000) scale(0.100000,-0.100000)"
fill="#000000" stroke="none">
<path d="M32880 77290 l0 -210 -420 0 -420 0 0 -210 0 -210 -210 0 -210 0 0
-210 0 -210 -210 0 -210 0 0 -420 0 -420 -210 0 -210 0 0 -420 0 -420 -210 0
-210 0 0 -420 0 -420 -210 0 -210 0 0 -420 0 -420 -210 0 -210 0 0 -420 0
-420 -210 0 -210 0 0 -630 0 -630 -210 0 -210 0 0 -420 0 -420 -210 0 -210 0
0 -420 0 -420 -210 0 -210 0 0 -415 0 -415 -210 0 -210 0 0 -420 0 -420 -210
0 -210 0 0 -630 0 -630 -210 0 -210 0 0 -420 0 -420 -210 0 -210 0 0 -420 0
-420 -210 0 -210 0 0 -420 0 -420 -210 0 -210 0 0 -420 0 -420 -210 0 -210 0
0 -420 0 -420 -210 0 -210 0 0 -630 0 -630 -210 0 -210 0 0 -420 0 -420 -210
0 -210 0 0 -420 0 -420 -210 0 -210 0 0 -420 0 -420 -210 0 -210 0 0 -420 0
-420 -210 0 -210 0 0 -420 0 -420 -210 0 -210 0 0 -630 0 -630 -210 0 -210 0
0 -420 0 -420 -210 0 -210 0 0 -420 0 -420 -210 0 -210 0 0 -420 0 -420 -210
0 -210 0 0 -420 0 -420 -210 0 -210 0 0 -420 0 -420 -210 0 -210 0 0 -630 0
-630 -210 0 -210 0 0 -420 0 -420 -210 0 -210 0 0 -420 0 -420 -210 0 -210 0
0 -420 0 -420 -210 0 -210 0 0 -420 0 -420 -210 0 -210 0 0 -420 0 -420 -210
0 -210 0 0 -630 0 -630 -210 0 -210 0 0 -420 0 -420 -210 0 -210 0 0 -420 0
-420 -210 0 -210 0 0 -420 0 -420 -210 0 -210 0 0 -420 0 -420 -210 0 -210 0
0 -420 0 -420 -210 0 -210 0 0 -630 0 -630 -210 0 -210 0 0 -420 0 -420 -210
0 -210 0 0 -420 0 -420 -210 0 -210 0 0 -420 0 -420 -210 0 -210 0 0 -420 0
-420 -210 0 -210 0 0 -415 0 -415 -210 0 -210 0 0 -630 0 -630 -210 0 -210 0
0 -420 0 -420 -210 0 -210 0 0 -420 0 -420 -210 0 -210 0 0 -420 0 -420 -210
0 -210 0 0 -420 0 -420 -210 0 -210 0 0 -630 0 -630 -210 0 -210 0 0 -420 0
-420 -210 0 -210 0 0 -420 0 -420 -210 0 -210 0 0 -420 0 -420 -210 0 -210 0
0 -420 0 -420 -210 0 -210 0 0 -420 0 -420 -210 0 -210 0 0 -630 0 -630 -210
0 -210 0 0 -420 0 -420 -210 0 -210 0 0 -420 0 -420 -210 0 -210 0 0 -420 0
-420 -210 0 -210 0 0 -420 0 -420 -210 0 -210 0 0 -420 0 -420 -210 0 -210 0
0 -630 0 -630 -210 0 -210 0 0 -420 0 -420 -210 0 -210 0 0 -420 0 -420 -210
0 -210 0 0 -420 0 -420 -210 0 -210 0 0 -420 0 -420 -210 0 -210 0 0 -1890 0
-1890 210 0 210 0 0 -420 0 -420 210 0 210 0 0 -210 0 -210 210 0 210 0 0
-210 0 -210 420 0 420 0 0 -210 0 -210 13230 0 13230 0 0 210 0 210 420 0 420
0 0 210 0 210 210 0 210 0 0 210 0 210 210 0 210 0 0 420 0 420 205 0 205 0 0
420 0 420 210 0 210 0 0 420 0 420 210 0 210 0 0 420 0 420 210 0 210 0 0 420
0 420 210 0 210 0 0 210 0 210 210 0 210 0 0 210 0 210 210 0 210 0 0 -210 0
-210 210 0 210 0 0 -210 0 -210 210 0 210 0 0 -210 0 -210 210 0 210 0 0 -210
0 -210 210 0 210 0 0 -210 0 -210 210 0 210 0 0 -210 0 -210 210 0 210 0 0
-210 0 -210 210 0 210 0 0 -210 0 -210 210 0 210 0 0 -210 0 -210 420 0 420 0
0 -210 0 -210 210 0 210 0 0 -210 0 -210 420 0 420 0 0 -210 0 -210 420 0 420
0 0 -210 0 -210 420 0 420 0 0 -210 0 -210 840 0 840 0 0 -210 0 -210 13855 0
13855 0 0 210 0 210 840 0 840 0 0 210 0 210 420 0 420 0 0 210 0 210 420 0
420 0 0 210 0 210 420 0 420 0 0 210 0 210 420 0 420 0 0 210 0 210 420 0 420
0 0 210 0 210 210 0 210 0 0 210 0 210 210 0 210 0 0 210 0 210 210 0 210 0 0
210 0 210 210 0 210 0 0 210 0 210 210 0 210 0 0 210 0 210 210 0 210 0 0 210
0 210 210 0 210 0 0 210 0 210 210 0 210 0 0 210 0 210 210 0 210 0 0 420 0
420 210 0 210 0 0 420 0 420 210 0 210 0 0 420 0 420 210 0 210 0 0 420 0 420
210 0 210 0 0 840 0 840 210 0 210 0 0 4200 0 4200 -210 0 -210 0 0 840 0 840
-210 0 -210 0 0 630 0 630 -210 0 -210 0 0 420 0 420 -210 0 -210 0 0 630 0
630 -210 0 -210 0 0 420 0 420 -210 0 -210 0 0 420 0 420 -210 0 -210 0 0 415
0 415 -210 0 -210 0 0 420 0 420 -210 0 -210 0 0 420 0 420 -210 0 -210 0 0
420 0 420 -210 0 -210 0 0 420 0 420 -210 0 -210 0 0 420 0 420 -210 0 -210 0
0 630 0 630 -210 0 -210 0 0 420 0 420 -210 0 -210 0 0 420 0 420 -210 0 -210
0 0 420 0 420 -210 0 -210 0 0 420 0 420 -210 0 -210 0 0 420 0 420 -210 0
-210 0 0 420 0 420 -210 0 -210 0 0 420 0 420 -210 0 -210 0 0 420 0 420 -210
0 -210 0 0 420 0 420 -210 0 -210 0 0 420 0 420 -210 0 -210 0 0 420 0 420
-210 0 -210 0 0 420 0 420 -210 0 -210 0 0 420 0 420 -210 0 -210 0 0 420 0
420 -210 0 -210 0 0 420 0 420 -210 0 -210 0 0 420 0 420 -210 0 -210 0 0 420
0 420 -210 0 -210 0 0 420 0 420 -210 0 -210 0 0 630 0 630 -210 0 -210 0 0
420 0 420 -210 0 -210 0 0 420 0 420 -210 0 -210 0 0 420 0 420 -210 0 -210 0
0 420 0 420 -210 0 -210 0 0 420 0 420 -210 0 -210 0 0 420 0 420 -210 0 -210
0 0 420 0 420 -210 0 -210 0 0 420 0 420 -210 0 -210 0 0 420 0 420 -205 0
-205 0 0 420 0 420 -210 0 -210 0 0 420 0 420 -210 0 -210 0 0 420 0 420 -210
0 -210 0 0 415 0 415 -210 0 -210 0 0 420 0 420 -210 0 -210 0 0 420 0 420
-210 0 -210 0 0 420 0 420 -210 0 -210 0 0 420 0 420 -210 0 -210 0 0 420 0
420 -210 0 -210 0 0 630 0 630 -210 0 -210 0 0 420 0 420 -210 0 -210 0 0 420
0 420 -210 0 -210 0 0 210 0 210 -210 0 -210 0 0 210 0 210 -210 0 -210 0 0
210 0 210 -420 0 -420 0 0 210 0 210 -13435 0 -13435 0 0 -210z m22250 -7980
l0 -210 210 0 210 0 0 -210 0 -210 210 0 210 0 0 -415 0 -415 210 0 210 0 0
-420 0 -420 210 0 210 0 0 -420 0 -420 210 0 210 0 0 -420 0 -420 210 0 210 0
0 -420 0 -420 210 0 210 0 0 -420 0 -420 210 0 210 0 0 -420 0 -420 210 0 210
0 0 -420 0 -420 210 0 210 0 0 -420 0 -420 210 0 210 0 0 -420 0 -420 210 0
210 0 0 -420 0 -420 210 0 210 0 0 -420 0 -420 210 0 210 0 0 -420 0 -420 210
0 210 0 0 -420 0 -420 210 0 210 0 0 -630 0 -630 210 0 210 0 0 -420 0 -420
210 0 210 0 0 -420 0 -420 210 0 210 0 0 -420 0 -420 210 0 210 0 0 -420 0
-420 210 0 210 0 0 -420 0 -420 210 0 210 0 0 -420 0 -420 210 0 210 0 0 -420
0 -420 210 0 210 0 0 -420 0 -420 210 0 210 0 0 -420 0 -420 210 0 210 0 0
-420 0 -420 210 0 210 0 0 -420 0 -420 205 0 205 0 0 -420 0 -420 210 0 210 0
0 -420 0 -420 210 0 210 0 0 -420 0 -420 210 0 210 0 0 -420 0 -420 210 0 210
0 0 -420 0 -420 210 0 210 0 0 -420 0 -420 210 0 210 0 0 -420 0 -420 210 0
210 0 0 -630 0 -630 210 0 210 0 0 -420 0 -420 210 0 210 0 0 -420 0 -420 210
0 210 0 0 -420 0 -420 210 0 210 0 0 -420 0 -420 210 0 210 0 0 -415 0 -415
210 0 210 0 0 -420 0 -420 210 0 210 0 0 -420 0 -420 210 0 210 0 0 -420 0
-420 210 0 210 0 0 -420 0 -420 210 0 210 0 0 -420 0 -420 210 0 210 0 0 -420
0 -420 210 0 210 0 0 -630 0 -630 210 0 210 0 0 -630 0 -630 210 0 210 0 0
-840 0 -840 210 0 210 0 0 -1890 0 -1890 -210 0 -210 0 0 -630 0 -630 -210 0
-210 0 0 -420 0 -420 -210 0 -210 0 0 -210 0 -210 -210 0 -210 0 0 -210 0
-210 -210 0 -210 0 0 -210 0 -210 -210 0 -210 0 0 -210 0 -210 -210 0 -210 0
0 -210 0 -210 -420 0 -420 0 0 -210 0 -210 -420 0 -420 0 0 -210 0 -210 -840
0 -840 0 0 -210 0 -210 -3985 0 -3985 0 0 210 0 210 -210 0 -210 0 0 420 0
420 210 0 210 0 0 1050 0 1050 210 0 210 0 0 2310 0 2310 -210 0 -210 0 0
1050 0 1050 -210 0 -210 0 0 840 0 840 -210 0 -210 0 0 420 0 420 -210 0 -210
0 0 630 0 630 -210 0 -210 0 0 420 0 420 -210 0 -210 0 0 420 0 420 -210 0
-210 0 0 420 0 420 -210 0 -210 0 0 420 0 420 -210 0 -210 0 0 420 0 420 -210
0 -210 0 0 415 0 415 -210 0 -210 0 0 420 0 420 -210 0 -210 0 0 420 0 420
-210 0 -210 0 0 630 0 630 -210 0 -210 0 0 420 0 420 -210 0 -210 0 0 420 0
420 -210 0 -210 0 0 420 0 420 -210 0 -210 0 0 420 0 420 -210 0 -210 0 0 420
0 420 -210 0 -210 0 0 420 0 420 -210 0 -210 0 0 420 0 420 -210 0 -210 0 0
420 0 420 -210 0 -210 0 0 420 0 420 -210 0 -210 0 0 420 0 420 -210 0 -210 0
0 420 0 420 -210 0 -210 0 0 420 0 420 -210 0 -210 0 0 420 0 420 -210 0 -210
0 0 420 0 420 -210 0 -210 0 0 420 0 420 -210 0 -210 0 0 420 0 420 -210 0
-210 0 0 420 0 420 -210 0 -210 0 0 420 0 420 -210 0 -210 0 0 630 0 630 -210
0 -210 0 0 420 0 420 -210 0 -210 0 0 420 0 420 -210 0 -210 0 0 420 0 420
-210 0 -210 0 0 420 0 420 -210 0 -210 0 0 420 0 420 -210 0 -210 0 0 420 0
420 -210 0 -210 0 0 420 0 420 -210 0 -210 0 0 420 0 420 -210 0 -210 0 0 420
0 420 -210 0 -210 0 0 420 0 420 -210 0 -210 0 0 420 0 420 -210 0 -210 0 0
420 0 420 -210 0 -210 0 0 420 0 420 -210 0 -210 0 0 420 0 420 -210 0 -210 0
0 420 0 420 -210 0 -210 0 0 420 0 420 -210 0 -210 0 0 415 0 415 210 0 210 0
0 210 0 210 6510 0 6510 0 0 -210z m-19740 -6500 l0 -420 210 0 210 0 0 -420
0 -420 210 0 210 0 0 -420 0 -420 210 0 210 0 0 -420 0 -420 210 0 210 0 0
-420 0 -420 210 0 210 0 0 -420 0 -420 210 0 210 0 0 -420 0 -420 210 0 210 0
0 -420 0 -420 210 0 210 0 0 -420 0 -420 210 0 210 0 0 -420 0 -420 210 0 210
0 0 -420 0 -420 210 0 210 0 0 -630 0 -630 210 0 210 0 0 -420 0 -420 210 0
210 0 0 -420 0 -420 210 0 210 0 0 -420 0 -420 210 0 210 0 0 -420 0 -420 210
0 210 0 0 -420 0 -420 210 0 210 0 0 -420 0 -420 210 0 210 0 0 -420 0 -420
-210 0 -210 0 0 -210 0 -210 -7555 0 -7555 0 0 1050 0 1050 210 0 210 0 0 420
0 420 210 0 210 0 0 420 0 420 210 0 210 0 0 420 0 420 210 0 210 0 0 420 0
420 210 0 210 0 0 420 0 420 210 0 210 0 0 630 0 630 210 0 210 0 0 420 0 420
210 0 210 0 0 420 0 420 210 0 210 0 0 420 0 420 210 0 210 0 0 420 0 420 210
0 210 0 0 420 0 420 210 0 210 0 0 630 0 630 210 0 210 0 0 420 0 420 205 0
205 0 0 420 0 420 210 0 210 0 0 420 0 420 210 0 210 0 0 420 0 420 210 0 210
0 0 210 0 210 420 0 420 0 0 -420z m-11330 -24780 l0 -420 210 0 210 0 0 -420
0 -420 210 0 210 0 0 -420 0 -420 210 0 210 0 0 -415 0 -415 210 0 210 0 0
-420 0 -420 210 0 210 0 0 -420 0 -420 210 0 210 0 0 -420 0 -420 210 0 210 0
0 -420 0 -420 210 0 210 0 0 -420 0 -420 210 0 210 0 0 -420 0 -420 210 0 210
0 0 -420 0 -420 210 0 210 0 0 -420 0 -420 210 0 210 0 0 -420 0 -420 210 0
210 0 0 -420 0 -420 210 0 210 0 0 -420 0 -420 210 0 210 0 0 -1260 0 -1260
-210 0 -210 0 0 -420 0 -420 -210 0 -210 0 0 -420 0 -420 -210 0 -210 0 0
-420 0 -420 -210 0 -210 0 0 -420 0 -420 -210 0 -210 0 0 -420 0 -420 -210 0
-210 0 0 -420 0 -420 -210 0 -210 0 0 -420 0 -420 -210 0 -210 0 0 -210 0
-210 -210 0 -210 0 0 -210 0 -210 -6300 0 -6300 0 0 210 0 210 -210 0 -210 0
0 630 0 630 210 0 210 0 0 420 0 420 210 0 210 0 0 420 0 420 210 0 210 0 0
420 0 420 210 0 210 0 0 630 0 630 210 0 210 0 0 420 0 420 210 0 210 0 0 420
0 420 210 0 210 0 0 420 0 420 210 0 210 0 0 420 0 420 210 0 210 0 0 420 0
420 210 0 210 0 0 630 0 630 210 0 210 0 0 420 0 420 210 0 210 0 0 420 0 420
210 0 210 0 0 420 0 420 210 0 210 0 0 420 0 420 210 0 210 0 0 630 0 630 210
0 210 0 0 420 0 420 210 0 210 0 0 420 0 420 210 0 210 0 0 420 0 420 210 0
210 0 0 415 0 415 210 0 210 0 0 420 0 420 210 0 210 0 0 630 0 630 210 0 210
0 0 420 0 420 630 0 630 0 0 -420z m22670 210 l0 -210 420 0 420 0 0 -210 0
-210 210 0 210 0 0 -630 0 -630 210 0 210 0 0 -420 0 -420 210 0 210 0 0 -415
0 -415 210 0 210 0 0 -420 0 -420 210 0 210 0 0 -420 0 -420 210 0 210 0 0
-420 0 -420 210 0 210 0 0 -420 0 -420 210 0 210 0 0 -420 0 -420 210 0 210 0
0 -420 0 -420 210 0 210 0 0 -420 0 -420 210 0 210 0 0 -420 0 -420 210 0 210
0 0 -420 0 -420 210 0 210 0 0 -630 0 -630 210 0 210 0 0 -630 0 -630 210 0
210 0 0 -2310 0 -2310 -210 0 -210 0 0 -420 0 -420 -210 0 -210 0 0 -210 0
-210 -210 0 -210 0 0 -210 0 -210 -210 0 -210 0 0 -210 0 -210 -210 0 -210 0
0 -210 0 -210 -420 0 -420 0 0 -210 0 -210 -630 0 -630 0 0 -210 0 -210 -1470
0 -1470 0 0 210 0 210 -630 0 -630 0 0 210 0 210 -420 0 -420 0 0 210 0 210
-210 0 -210 0 0 210 0 210 -210 0 -210 0 0 210 0 210 -210 0 -210 0 0 210 0
210 -210 0 -210 0 0 210 0 210 -210 0 -210 0 0 210 0 210 -210 0 -210 0 0 420
0 420 -210 0 -210 0 0 420 0 420 -210 0 -210 0 0 210 0 210 -210 0 -210 0 0
420 0 420 -210 0 -210 0 0 420 0 420 -210 0 -210 0 0 420 0 420 -210 0 -210 0
0 630 0 630 -210 0 -210 0 0 420 0 420 -210 0 -210 0 0 420 0 420 -210 0 -210
0 0 420 0 420 -210 0 -210 0 0 420 0 420 -210 0 -210 0 0 420 0 420 -210 0
-210 0 0 420 0 420 -210 0 -210 0 0 420 0 420 -210 0 -210 0 0 420 0 420 -210
0 -210 0 0 420 0 420 -210 0 -210 0 0 420 0 420 -210 0 -210 0 0 420 0 420
-210 0 -210 0 0 415 0 415 -210 0 -210 0 0 420 0 420 -210 0 -210 0 0 630 0
630 210 0 210 0 0 210 0 210 6300 0 6300 0 0 -210z"/>
</g>
<style>
    path { fill: #000; }
    @media (prefers-color-scheme: dark) {
        path { fill: #FFF; }
    }
</style>
</svg>
